<mxfile host="app.diagrams.net" modified="2023-06-28T07:41:58.558Z" agent="Mozilla/5.0 (Windows NT 10.0; Win64; x64) AppleWebKit/537.36 (KHTML, like Gecko) Chrome/114.0.0.0 Safari/537.36" etag="krcvvlrc2HEMOdU5idFk" version="21.5.1" type="github" pages="2">
  <diagram name="Page-1" id="tZIWG0VUi0laoN_gN-Mq">
    <mxGraphModel dx="1222" dy="598" grid="1" gridSize="10" guides="1" tooltips="1" connect="1" arrows="1" fold="1" page="1" pageScale="1" pageWidth="850" pageHeight="1100" math="0" shadow="0">
      <root>
        <mxCell id="0" />
        <mxCell id="1" parent="0" />
        <mxCell id="72kmQ44I9DTH1g1dCS5e-1" value="" style="strokeWidth=1;shadow=0;dashed=0;align=center;html=1;shape=mxgraph.mockup.containers.browserWindow;rSize=0;strokeColor=#666666;strokeColor2=#008cff;strokeColor3=#c4c4c4;mainText=,;recursiveResize=0;" vertex="1" parent="1">
          <mxGeometry x="400" y="590" width="1160" height="690" as="geometry" />
        </mxCell>
        <mxCell id="72kmQ44I9DTH1g1dCS5e-2" value="Page 1" style="strokeWidth=1;shadow=0;dashed=0;align=center;html=1;shape=mxgraph.mockup.containers.anchor;fontSize=17;fontColor=#666666;align=left;whiteSpace=wrap;" vertex="1" parent="72kmQ44I9DTH1g1dCS5e-1">
          <mxGeometry x="60" y="12" width="110" height="26" as="geometry" />
        </mxCell>
        <mxCell id="72kmQ44I9DTH1g1dCS5e-3" value="https://www.e-commerce/admin" style="strokeWidth=1;shadow=0;dashed=0;align=center;html=1;shape=mxgraph.mockup.containers.anchor;rSize=0;fontSize=17;fontColor=#666666;align=left;" vertex="1" parent="72kmQ44I9DTH1g1dCS5e-1">
          <mxGeometry x="130" y="60" width="250" height="26" as="geometry" />
        </mxCell>
        <mxCell id="72kmQ44I9DTH1g1dCS5e-4" value="" style="strokeWidth=1;shadow=0;dashed=0;align=center;html=1;shape=mxgraph.mockup.forms.rrect;rSize=0;strokeColor=#999999;fillColor=#ffffff;" vertex="1" parent="72kmQ44I9DTH1g1dCS5e-1">
          <mxGeometry x="110" y="110" width="900" height="540" as="geometry" />
        </mxCell>
        <mxCell id="72kmQ44I9DTH1g1dCS5e-5" value="&lt;h1&gt;Customer Login/Register&lt;/h1&gt;" style="strokeWidth=1;shadow=0;dashed=0;align=center;html=1;shape=mxgraph.mockup.forms.anchor;fontSize=12;fontColor=#666666;align=left;resizeWidth=1;spacingLeft=0;" vertex="1" parent="72kmQ44I9DTH1g1dCS5e-4">
          <mxGeometry width="450" height="20" relative="1" as="geometry">
            <mxPoint x="10" y="10" as="offset" />
          </mxGeometry>
        </mxCell>
        <mxCell id="72kmQ44I9DTH1g1dCS5e-6" value="" style="shape=line;strokeColor=#ddeeff;strokeWidth=2;html=1;resizeWidth=1;" vertex="1" parent="72kmQ44I9DTH1g1dCS5e-4">
          <mxGeometry width="810" height="10" relative="1" as="geometry">
            <mxPoint x="10" y="30" as="offset" />
          </mxGeometry>
        </mxCell>
        <mxCell id="72kmQ44I9DTH1g1dCS5e-7" value="User Name:" style="strokeWidth=1;shadow=0;dashed=0;align=center;html=1;shape=mxgraph.mockup.forms.anchor;fontSize=12;fontColor=#666666;align=left;resizeWidth=1;spacingLeft=0;" vertex="1" parent="72kmQ44I9DTH1g1dCS5e-4">
          <mxGeometry width="450" height="20" relative="1" as="geometry">
            <mxPoint x="10" y="40" as="offset" />
          </mxGeometry>
        </mxCell>
        <mxCell id="72kmQ44I9DTH1g1dCS5e-8" value="johndoe" style="strokeWidth=1;shadow=0;dashed=0;align=center;html=1;shape=mxgraph.mockup.forms.rrect;rSize=0;strokeColor=#999999;fontColor=#666666;align=left;spacingLeft=5;resizeWidth=1;" vertex="1" parent="72kmQ44I9DTH1g1dCS5e-4">
          <mxGeometry width="675" height="25" relative="1" as="geometry">
            <mxPoint x="10" y="60" as="offset" />
          </mxGeometry>
        </mxCell>
        <mxCell id="72kmQ44I9DTH1g1dCS5e-9" value="Password:" style="strokeWidth=1;shadow=0;dashed=0;align=center;html=1;shape=mxgraph.mockup.forms.anchor;fontSize=12;fontColor=#666666;align=left;resizeWidth=1;spacingLeft=0;" vertex="1" parent="72kmQ44I9DTH1g1dCS5e-4">
          <mxGeometry width="450" height="20" relative="1" as="geometry">
            <mxPoint x="10" y="95" as="offset" />
          </mxGeometry>
        </mxCell>
        <mxCell id="72kmQ44I9DTH1g1dCS5e-10" value="********" style="strokeWidth=1;shadow=0;dashed=0;align=center;html=1;shape=mxgraph.mockup.forms.rrect;rSize=0;strokeColor=#999999;fontColor=#666666;align=left;spacingLeft=5;resizeWidth=1;" vertex="1" parent="72kmQ44I9DTH1g1dCS5e-4">
          <mxGeometry width="675" height="25" relative="1" as="geometry">
            <mxPoint x="10" y="115" as="offset" />
          </mxGeometry>
        </mxCell>
        <mxCell id="72kmQ44I9DTH1g1dCS5e-11" value="SIGN IN" style="strokeWidth=1;shadow=0;dashed=0;align=center;html=1;shape=mxgraph.mockup.forms.rrect;rSize=5;strokeColor=none;fontColor=#ffffff;fillColor=#66bbff;fontSize=16;fontStyle=1;" vertex="1" parent="72kmQ44I9DTH1g1dCS5e-4">
          <mxGeometry y="1" width="80" height="30" relative="1" as="geometry">
            <mxPoint x="20" y="-150" as="offset" />
          </mxGeometry>
        </mxCell>
        <mxCell id="72kmQ44I9DTH1g1dCS5e-12" value="Forgot Password?" style="strokeWidth=1;shadow=0;dashed=0;align=center;html=1;shape=mxgraph.mockup.forms.anchor;fontSize=12;fontColor=#9999ff;align=left;spacingLeft=0;fontStyle=4;resizeWidth=1;" vertex="1" parent="72kmQ44I9DTH1g1dCS5e-4">
          <mxGeometry y="1" width="675" height="20" relative="1" as="geometry">
            <mxPoint x="10" y="-110" as="offset" />
          </mxGeometry>
        </mxCell>
        <mxCell id="72kmQ44I9DTH1g1dCS5e-13" value="" style="shape=line;strokeColor=#ddeeff;strokeWidth=2;html=1;resizeWidth=1;" vertex="1" parent="72kmQ44I9DTH1g1dCS5e-4">
          <mxGeometry y="1" width="810" height="10" relative="1" as="geometry">
            <mxPoint x="10" y="-90" as="offset" />
          </mxGeometry>
        </mxCell>
        <mxCell id="72kmQ44I9DTH1g1dCS5e-14" value="New User" style="strokeWidth=1;shadow=0;dashed=0;align=center;html=1;shape=mxgraph.mockup.forms.anchor;fontSize=12;fontColor=#666666;align=left;spacingLeft=0;resizeWidth=1;" vertex="1" parent="72kmQ44I9DTH1g1dCS5e-4">
          <mxGeometry y="1" width="675" height="20" relative="1" as="geometry">
            <mxPoint x="10" y="-70" as="offset" />
          </mxGeometry>
        </mxCell>
        <mxCell id="72kmQ44I9DTH1g1dCS5e-15" value="SIGN UP" style="strokeWidth=1;shadow=0;dashed=0;align=center;html=1;shape=mxgraph.mockup.forms.rrect;rSize=5;strokeColor=none;fontColor=#ffffff;fillColor=#66bbff;fontSize=16;fontStyle=1;" vertex="1" parent="72kmQ44I9DTH1g1dCS5e-4">
          <mxGeometry y="1" width="80" height="30" relative="1" as="geometry">
            <mxPoint x="20" y="-50" as="offset" />
          </mxGeometry>
        </mxCell>
      </root>
    </mxGraphModel>
  </diagram>
  <diagram id="9CtfqLbKxIrmZ9xaNj5o" name="Page-2">
    <mxGraphModel dx="1222" dy="598" grid="1" gridSize="10" guides="1" tooltips="1" connect="1" arrows="1" fold="1" page="1" pageScale="1" pageWidth="850" pageHeight="1100" math="0" shadow="0">
      <root>
        <mxCell id="0" />
        <mxCell id="1" parent="0" />
        <mxCell id="spwjoFJwG9C53uS-grlw-2" value="" style="whiteSpace=wrap;html=1;aspect=fixed;" parent="1" vertex="1">
          <mxGeometry x="260" y="440" width="1720" height="1720" as="geometry" />
        </mxCell>
        <mxCell id="spwjoFJwG9C53uS-grlw-4" value="&lt;h1&gt;&lt;i&gt;User Profile Management&lt;/i&gt;&lt;/h1&gt;" style="ellipse;whiteSpace=wrap;html=1;" parent="1" vertex="1">
          <mxGeometry x="1010" y="490" width="260" height="150" as="geometry" />
        </mxCell>
        <mxCell id="spwjoFJwG9C53uS-grlw-7" value="&lt;h2&gt;Name&lt;/h2&gt;" style="ellipse;whiteSpace=wrap;html=1;" parent="1" vertex="1">
          <mxGeometry x="290" y="850" width="120" height="80" as="geometry" />
        </mxCell>
        <mxCell id="spwjoFJwG9C53uS-grlw-8" value="&lt;h2&gt;Photo&lt;/h2&gt;" style="ellipse;whiteSpace=wrap;html=1;" parent="1" vertex="1">
          <mxGeometry x="550" y="850" width="120" height="80" as="geometry" />
        </mxCell>
        <mxCell id="spwjoFJwG9C53uS-grlw-9" value="&lt;h2&gt;Address&lt;/h2&gt;" style="ellipse;whiteSpace=wrap;html=1;" parent="1" vertex="1">
          <mxGeometry x="790" y="850" width="120" height="80" as="geometry" />
        </mxCell>
        <mxCell id="spwjoFJwG9C53uS-grlw-10" value="&lt;h2&gt;Orders&lt;/h2&gt;" style="ellipse;whiteSpace=wrap;html=1;" parent="1" vertex="1">
          <mxGeometry x="1040" y="850" width="120" height="80" as="geometry" />
        </mxCell>
        <mxCell id="spwjoFJwG9C53uS-grlw-12" value="&lt;h2&gt;WishList&lt;/h2&gt;" style="ellipse;whiteSpace=wrap;html=1;" parent="1" vertex="1">
          <mxGeometry x="1270" y="850" width="120" height="80" as="geometry" />
        </mxCell>
        <mxCell id="spwjoFJwG9C53uS-grlw-15" value="&lt;h2&gt;Edit Profile&lt;/h2&gt;" style="ellipse;whiteSpace=wrap;html=1;" parent="1" vertex="1">
          <mxGeometry x="1530" y="850" width="120" height="80" as="geometry" />
        </mxCell>
        <mxCell id="spwjoFJwG9C53uS-grlw-16" value="&lt;h2&gt;Logout&lt;/h2&gt;" style="ellipse;whiteSpace=wrap;html=1;" parent="1" vertex="1">
          <mxGeometry x="1800" y="850" width="120" height="80" as="geometry" />
        </mxCell>
      </root>
    </mxGraphModel>
  </diagram>
</mxfile>
